<svg width="176" height="170" viewBox="0 0 176 170" fill="none" xmlns="http://www.w3.org/2000/svg">
<path d="M86.0383 0.194026C84.9064 0.493646 84.0075 1.19276 82.9422 2.62427L82.0767 3.78946L81.9768 29.7565C81.9102 47.8668 81.777 55.89 81.5107 56.356C81.311 56.7222 80.8782 57.5545 80.5786 58.187C80.2789 58.8196 79.2469 60.3177 78.2815 61.5162L76.5503 63.6801L76.3839 47.1344C76.2507 34.5171 76.1176 30.4889 75.8179 30.156C75.5849 29.9562 75.3852 29.5234 75.3852 29.2238C75.3852 27.4261 71.0573 22.7987 68.6937 22.0662C68.2609 21.9331 67.6949 21.6668 67.4286 21.467C66.6629 20.8345 60.1711 21.0342 58.2403 21.7C55.1775 22.7987 50.5167 24.9959 50.084 25.5285C49.9841 25.6617 49.518 25.9946 49.0186 26.3275C47.8535 27.0599 43.0263 30.955 41.3284 32.5196C38.3322 35.2828 32.2067 42.2739 28.3782 47.3675C23.6509 53.5929 18.8569 61.8824 15.4946 69.6725C15.0951 70.5713 14.629 71.6366 14.4625 72.0028C14.1962 72.5688 13.6303 73.9004 12.4651 76.6636C11.5995 78.7609 8.57001 87.7162 7.47141 91.4781C7.07192 92.843 6.60584 94.3411 6.43939 94.8072C6.30622 95.2733 6.0066 96.3053 5.80686 97.1376C5.60711 97.9699 5.20762 99.5345 4.94129 100.633C3.64294 105.893 2.64421 111.02 2.14484 114.948C1.94509 116.413 1.71206 117.845 1.61218 118.111C0.680035 120.574 -0.218824 137.719 0.0475046 147.74C0.21396 153.799 0.54687 155.763 1.87851 159.392C3.14357 162.754 5.80686 165.884 8.90292 167.681C12.9644 170.012 16.693 170.511 22.1195 169.512C24.7828 169.046 25.8148 168.78 30.4422 167.515C34.8034 166.35 44.258 163.287 45.9892 162.521C46.5551 162.255 47.2542 162.055 47.5205 162.055C47.8202 162.055 48.1198 161.922 48.2197 161.756C48.3195 161.589 48.7856 161.356 49.2184 161.256C49.6845 161.156 51.0161 160.59 52.1813 160.058C53.3798 159.492 54.4451 159.059 54.545 159.059C54.7447 159.059 59.8382 156.029 60.0713 155.73C60.1711 155.63 60.7038 155.264 61.2365 154.898C64.4657 152.867 70.4581 145.609 72.4888 141.248C72.8217 140.516 73.3877 139.317 73.7539 138.552C74.0868 137.786 74.3864 136.954 74.3864 136.687C74.3864 136.421 74.4863 136.088 74.6195 135.955C75.1188 135.456 75.7847 132.226 76.051 129.097C76.1841 127.366 76.3173 115.381 76.3506 102.497L76.3839 79.0605L77.2827 77.8621C78.5811 76.0976 87.4032 66.8427 87.7694 66.8427C87.9359 66.8427 88.5351 67.3421 89.1344 67.9413C90.8655 69.739 96.1921 75.565 97.2241 76.83C97.7567 77.4626 98.2561 78.0618 98.3893 78.1617C99.2881 78.8941 99.3547 80.4255 99.3547 103.23C99.3547 131.161 99.4213 132.027 101.752 138.418C104.581 146.009 111.24 153.666 118.497 157.561C119.263 157.96 120.162 158.46 120.495 158.659C120.861 158.859 121.926 159.359 122.825 159.725C123.757 160.124 125.022 160.657 125.655 160.923C126.287 161.19 127.086 161.556 127.386 161.722C127.719 161.922 128.151 162.055 128.351 162.055C128.551 162.055 129.184 162.255 129.749 162.521C130.948 163.054 138.805 165.684 141.801 166.549C142.899 166.849 144.264 167.282 144.797 167.448C145.363 167.615 146.695 167.981 147.793 168.247C155.084 170.012 159.612 170.411 162.341 169.546C164.472 168.88 166.603 168.014 167.202 167.548C168.001 166.949 170.398 164.585 171.164 163.653C171.996 162.621 173.927 159.126 173.927 158.659C173.927 158.46 174.126 157.86 174.393 157.295C175.292 155.297 175.924 150.27 175.924 145.376C175.924 139.817 175.092 125.435 174.592 122.772C174.426 121.773 174.126 119.676 173.927 118.111C173.627 115.381 173.161 112.618 172.129 107.624C171.863 106.326 171.43 104.162 171.164 102.797C170.897 101.432 170.531 99.8342 170.331 99.3015C170.165 98.7356 169.765 97.4705 169.499 96.4718C168.001 90.9787 165.304 82.5228 164.405 80.5919C164.139 80.026 163.939 79.3602 163.939 79.0938C163.939 78.8275 163.806 78.4946 163.673 78.2948C163.507 78.1284 163.107 77.2295 162.774 76.3307C162.242 74.7993 161.842 73.8338 160.377 70.5047C159.645 68.8069 155.583 60.7172 154.218 58.187C152.387 54.8579 144.897 44.0051 143.665 42.8732C143.565 42.7733 142.633 41.7413 141.634 40.5428C138.705 37.0472 131.58 30.156 128.584 27.9255C127.053 26.8269 125.621 25.7283 125.388 25.5285C124.656 24.9293 119.229 22.2993 118.164 22.033C117.598 21.8998 116.966 21.6335 116.733 21.467C116.466 21.2673 114.702 21.1008 112.738 21.1008C109.109 21.0675 108.809 21.1341 105.38 22.8319C103.916 23.5976 101.519 26.2942 100.686 28.1252C99.5212 30.7552 99.3547 33.3519 99.3547 48.4328C99.3547 63.9464 99.3214 64.1461 97.9232 62.5149C96.6581 61.0168 95.1268 58.6198 94.5608 57.2216C94.0281 55.89 93.9949 53.5929 93.8617 30.4223C93.7618 4.45528 93.7285 3.55642 92.4302 2.09162C90.9987 0.427064 88.2022 -0.405213 86.0383 0.194026ZM65.0982 32.1867L66.0637 33.1522V44.1049C66.0637 50.0973 65.9305 55.1909 65.7973 55.3906C65.298 56.1563 63.2339 56.8554 61.5361 56.8554C59.9714 56.8554 59.7051 56.7555 59.006 55.8567C56.8753 53.0602 56.9419 53.1268 55.0776 52.9271C53.0469 52.7273 51.6819 53.2933 50.5833 54.7914C49.6512 56.0564 49.6512 59.6186 50.5833 61.0168C51.915 63.0143 53.4464 64.1794 56.842 65.7108C58.1404 66.2768 60.8037 66.4765 64.0662 66.1769L65.8972 66.0437L65.9971 69.0066C66.0637 70.6712 65.9971 72.3357 65.9305 72.7019C65.6975 73.6008 62.5348 75.5317 59.8715 76.364C56.9752 77.2961 51.1826 77.2295 49.0186 76.2308C45.9226 74.8326 43.6255 71.903 41.8944 67.1756C41.2285 65.3113 40.8623 56.7888 41.3617 54.3586C42.2606 49.9974 42.427 49.5314 43.9584 46.3687C46.3887 41.3751 53.5795 34.5171 59.1058 31.9204C60.0047 31.5209 61.2698 31.2546 62.3351 31.2213C63.8665 31.2213 64.2659 31.3545 65.0982 32.1867ZM117.099 32.3532C118.297 32.9857 120.261 34.2175 121.393 35.0831C123.957 37.0472 128.484 41.5748 129.816 43.539C131.081 45.37 132.979 49.1985 132.979 49.8643C132.979 50.1639 133.112 50.5301 133.278 50.6966C133.911 51.3957 134.443 55.5571 134.443 59.6851C134.443 63.8132 134.077 66.3766 133.278 68.1744C131.381 72.4356 129.483 74.6994 126.72 76.0643C125.022 76.8966 124.489 76.9965 121.327 76.9965C118.797 76.9965 117.265 76.83 115.867 76.364C113.204 75.5317 110.041 73.6008 109.808 72.7019C109.742 72.3357 109.675 70.6379 109.742 69.0066C109.841 66.0437 109.841 66.0104 110.674 66.1103C113.936 66.4432 117.299 66.2768 118.83 65.6775C121.926 64.5123 124.356 62.2818 125.455 59.6519C126.021 58.2869 126.021 57.9873 125.621 56.7555C125.355 55.9898 124.689 54.8247 124.09 54.1921C123.125 53.0935 122.891 53.0269 121.027 53.0269H118.996L117.165 54.9245C115.501 56.689 115.235 56.8554 113.903 56.8554C112.305 56.8554 110.574 56.1563 109.941 55.2241C109.608 54.7581 109.542 52.1614 109.675 43.7387L109.841 32.8858L110.807 32.0536C112.238 30.8218 114.269 30.9217 117.099 32.3532ZM148.326 68.5073C149.824 71.5368 151.156 74.2999 151.322 74.6661C151.455 75.0323 151.855 75.9978 152.221 76.83C152.554 77.6623 153.12 78.994 153.453 79.8262C153.786 80.6585 154.252 81.7904 154.485 82.3896C154.751 82.9556 154.951 83.6214 154.951 83.8877C154.951 84.1541 155.084 84.487 155.217 84.6867C155.65 85.1195 156.948 89.2476 156.948 90.0799C156.948 90.4461 157.115 90.8789 157.281 90.9787C157.814 91.3116 157.681 91.6113 156.549 92.8763C154.951 94.6075 151.722 96.6049 149.657 97.1376C148.992 97.304 147.86 97.6037 147.127 97.7701C143.399 98.7356 137.573 97.87 132.846 95.6728C131.547 95.0735 129.65 93.9083 128.651 93.1094C126.42 91.3782 122.991 87.8161 122.991 87.2501C122.991 86.8506 123.724 86.6509 126.554 86.318C127.519 86.1848 128.385 85.9518 128.518 85.7853C128.618 85.6189 128.917 85.4857 129.217 85.4857C129.716 85.4857 132.379 84.3205 133.145 83.7546C135.209 82.2565 137.273 80.3922 137.906 79.46C138.339 78.8275 138.938 78.0285 139.237 77.6623C141.435 74.999 143.832 68.5073 144.164 64.2793C144.398 61.4496 144.398 61.4496 144.997 62.2153C145.33 62.648 146.828 65.4778 148.326 68.5073ZM31.2079 63.5802C32.4397 72.4023 35.2361 77.8288 41.0621 82.7891C42.8265 84.3205 47.2209 86.085 50.1838 86.5177C51.7818 86.7508 53.0802 87.0504 53.0802 87.2168C53.0802 87.6829 48.1198 92.4435 46.5884 93.4423C45.856 93.9083 45.1902 94.3744 45.0903 94.5076C44.9904 94.6075 44.1914 95.0402 43.2593 95.4397C42.3604 95.8725 41.3284 96.3386 41.0288 96.5051C40.3963 96.838 38.4987 97.3373 35.9353 97.87C33.7381 98.3028 28.012 98.0031 26.1144 97.304C23.5843 96.4052 22.1195 95.7061 22.1195 95.4064C22.1195 95.2733 21.9197 95.1401 21.72 95.1401C21.0542 95.1401 18.1245 92.4768 18.1245 91.8776C18.1245 91.2784 19.3563 87.2834 19.8224 86.4179C19.9888 86.085 20.122 85.5523 20.122 85.2527C20.122 84.9198 20.355 84.2207 20.6214 83.688C20.8877 83.1886 21.1207 82.5894 21.1207 82.4229C21.1207 82.2232 21.3205 81.6239 21.5868 81.058C21.8199 80.4588 22.3525 79.1604 22.752 78.1617C23.1515 77.1629 23.6176 76.0311 23.784 75.6649C24.5497 73.9004 26.5139 69.6059 26.7802 69.1065C26.98 68.7736 27.5792 67.5751 28.1784 66.4432C29.6765 63.447 30.4422 62.182 30.7751 62.182C30.9083 62.182 31.1081 62.8145 31.2079 63.5802ZM66.0637 101.798V114.715L62.8011 116.912C57.1084 120.774 54.4451 123.737 52.714 128.265C52.3478 129.263 51.6819 132.06 51.0827 135.223C49.751 142.247 43.5589 150.536 36.7675 154.332C33.9711 155.896 31.0415 157.195 28.3449 158.027C22.1528 159.958 21.7533 160.058 18.3909 160.058C15.6277 160.058 14.862 159.958 13.9632 159.392C12.798 158.659 11.5329 157.128 10.8671 155.63C10.1347 153.932 10.2679 153.799 12.3985 154.132C16.227 154.798 26.5472 153.766 27.6458 152.634C27.779 152.501 28.1119 152.401 28.4115 152.401C28.7111 152.401 30.4755 151.635 32.3065 150.703C36.135 148.805 39.4308 146.009 41.9277 142.646C42.7599 141.515 43.5256 140.416 43.6921 140.249C44.258 139.451 46.089 135.422 46.6883 133.591C47.0212 132.493 47.4873 130.529 47.687 129.263C48.4194 124.536 49.0186 121.407 50.0507 116.679C50.4169 115.081 52.1813 109.522 52.714 108.29C53.2799 107.025 56.4426 100.633 56.842 99.9673C57.4746 98.9353 58.5399 97.3373 58.7396 97.1376C58.8395 97.0377 59.3056 96.3719 59.8049 95.6395C60.3043 94.9071 61.303 93.642 62.0687 92.8097C62.8011 91.9775 63.8997 90.6791 64.499 89.9467C65.0649 89.181 65.6642 88.6151 65.8306 88.7149C65.9638 88.7815 66.0637 94.674 66.0637 101.798ZM111.772 90.6458C112.471 91.3782 113.503 92.6433 114.103 93.4756C114.669 94.3078 115.301 95.1401 115.501 95.3732C116.333 96.3719 116.633 96.838 118.497 99.9673C120.628 103.563 121.227 104.695 122.326 107.291C122.692 108.19 123.158 109.222 123.324 109.522C123.491 109.855 123.79 110.654 123.957 111.353C124.157 112.052 124.556 113.45 124.856 114.449C126.054 118.444 126.487 120.674 127.785 128.931C128.351 132.626 128.917 134.39 130.615 137.786C132.479 141.515 135.476 145.276 138.272 147.407C138.871 147.873 139.537 148.406 139.737 148.572C140.636 149.405 145.496 152.068 146.029 152.068C146.229 152.068 146.828 152.268 147.394 152.534C150.49 153.899 155.151 154.498 160.71 154.265C165.471 154.065 165.471 154.065 164.272 156.362C163.34 158.227 161.775 159.658 160.377 159.925C158.846 160.224 153.086 159.858 151.788 159.425C151.255 159.225 149.657 158.759 148.293 158.36C146.928 157.96 145.563 157.494 145.296 157.361C145.03 157.195 144.065 156.762 143.132 156.396C142.234 156.029 141.102 155.497 140.636 155.264C140.17 154.997 139.104 154.431 138.272 153.999C134.144 151.801 129.25 146.641 127.219 142.347C125.788 139.351 123.99 133.092 123.99 131.161C123.99 130.762 123.857 130.395 123.69 130.295C123.524 130.196 123.291 129.563 123.191 128.897C122.825 127 120.361 123.204 118.131 121.14C117.032 120.108 114.835 118.411 113.237 117.345C111.672 116.247 110.241 115.215 110.074 115.015C109.908 114.782 109.675 108.723 109.575 101.532C109.342 86.8506 109.142 87.8494 111.772 90.6458ZM160.943 103.729C160.943 104.162 161.076 104.761 161.276 105.094C161.443 105.427 161.742 106.526 161.909 107.491C162.108 108.49 162.508 110.421 162.774 111.786C163.806 116.613 163.806 117.612 162.807 118.943C161.343 120.841 160.311 121.673 157.647 123.005C155.217 124.203 155.051 124.236 151.455 124.27C147.993 124.27 147.66 124.203 145.596 123.204C143.532 122.172 141.668 120.674 140.036 118.677C139.071 117.478 139.304 117.212 140.702 117.845C142.766 118.777 143.798 119.076 145.13 119.143C147.993 119.309 148.559 119.143 149.99 117.778L151.355 116.48L151.222 114.316C151.122 112.485 150.923 111.985 150.19 111.186C149.258 110.221 146.428 109.122 144.897 109.122C144.431 109.122 143.266 108.756 142.3 108.357L140.536 107.558L144.997 107.358C151.056 107.058 155.65 105.627 159.279 102.964C160.51 102.065 160.943 102.264 160.943 103.729ZM16.5932 103.197C20.0554 105.727 24.4831 107.025 30.4422 107.358L34.8699 107.558L33.2387 108.323C32.3398 108.756 31.0415 109.089 30.3757 109.122C28.9774 109.122 26.5805 110.088 25.615 111.02C25.2155 111.386 24.7162 112.285 24.4831 113.051C24.0836 114.249 24.0836 114.582 24.6163 115.847C24.9159 116.613 25.6483 117.678 26.2143 118.178C27.1131 119.01 27.4793 119.11 29.5434 119.11C31.7406 119.11 35.103 118.244 35.103 117.711C35.103 117.545 35.336 117.445 35.6356 117.445C36.135 117.445 36.135 117.545 35.6024 118.344C34.7035 119.809 33.4051 121.107 31.9403 122.039C29.8097 123.438 29.2105 123.704 27.0133 124.27C24.0504 125.002 19.7225 124.336 17.1258 122.738C14.9286 121.407 12.4984 119.21 12.1322 118.244C11.8325 117.512 12.1987 113.816 12.798 111.12C13.7301 106.859 14.5624 103.263 14.6623 102.864C14.8287 102.264 15.428 102.364 16.5932 103.197ZM66.0637 128.365C66.0637 132.193 63.1008 139.084 60.038 142.447C59.1391 143.412 58.4067 144.045 58.4067 143.845C58.4067 143.612 58.5399 143.379 58.7063 143.279C58.8728 143.179 59.1058 142.547 59.239 141.881C59.3389 141.215 59.5719 140.416 59.7384 140.116C60.0047 139.617 60.4042 137.786 61.07 134.091C61.5028 131.794 62.5681 129.596 64.0995 127.932C64.8652 127.1 65.5976 126.434 65.764 126.434C65.9305 126.434 66.0637 127.299 66.0637 128.365ZM111.339 127.998C112.638 129.33 114.003 131.561 114.003 132.426C114.003 133.025 114.835 136.854 115.534 139.417C115.967 140.982 116.233 141.681 116.899 143.146C116.966 143.279 116.866 143.445 116.733 143.545C116.067 143.945 111.007 135.855 111.007 134.424C111.007 134.124 110.873 133.758 110.674 133.558C110.507 133.392 110.174 132.027 110.008 130.595C109.808 129.13 109.575 127.699 109.475 127.366C109.176 126.4 109.975 126.667 111.339 127.998ZM12.1654 130.895C15.5611 133.192 19.1899 134.191 24.2834 134.191C29.2105 134.224 32.6062 133.258 36.368 130.828C37.0339 130.395 37.1004 130.395 37.1004 130.961C37.1004 131.893 34.8367 135.788 33.0389 137.819C31.3411 139.783 27.9454 142.247 25.6483 143.212C23.4178 144.145 20.1886 144.744 17.4587 144.744C14.7289 144.744 10.8005 143.945 10.401 143.279C10.0681 142.813 10.0681 130.628 10.3677 130.329C10.7006 129.963 10.9004 130.029 12.1654 130.895ZM139.737 130.828C140.336 131.261 140.869 131.694 140.902 131.827C140.969 131.993 141.202 132.093 141.401 132.093C141.634 132.093 142.2 132.293 142.666 132.559C145.196 133.858 147.094 134.224 151.455 134.191C154.451 134.157 156.349 133.991 157.614 133.591C159.911 132.892 163.939 131.061 163.939 130.695C163.939 130.562 164.306 130.429 164.772 130.429H165.604V136.721C165.604 141.648 165.504 143.079 165.138 143.379C164.339 144.045 160.943 144.744 158.413 144.777C151.522 144.844 145.296 141.814 141.235 136.421C140.036 134.823 137.972 130.728 138.172 130.395C138.405 129.963 138.538 129.996 139.737 130.828Z" fill="black"/>
<path d="M166.665 33.6671C161.552 35.8306 160.364 42.3209 164.496 45.6919C165.735 46.7484 166.613 47 168.731 47C173.689 47 176.943 43.2265 175.755 38.799C175.032 36.0318 173.947 34.8243 171.261 33.7678C168.679 32.7615 168.782 32.7615 166.665 33.6671Z" fill="black"/>
<path d="M4.66473 33.6671C-0.448405 35.8306 -1.63631 42.3209 2.49552 45.6919C3.73507 46.7484 4.61308 47 6.73064 47C11.6888 47 14.9426 43.2265 13.7547 38.799C13.0317 36.0318 11.9471 34.8243 9.26138 33.7678C6.67899 32.7615 6.78229 32.7615 4.66473 33.6671Z" fill="black"/>
<path d="M85.6647 156.667C80.5516 158.831 79.3637 165.321 83.4955 168.692C84.7351 169.748 85.6131 170 87.7306 170C92.6888 170 95.9426 166.227 94.7547 161.799C94.0317 159.032 92.9471 157.824 90.2614 156.768C87.679 155.762 87.7823 155.762 85.6647 156.667Z" fill="black"/>
</svg>
